<?xml version="1.0" encoding="iso-8859-1"?>
<!-- Uploaded to: SVG Repo, www.svgrepo.com, Generator: SVG Repo Mixer Tools -->
<svg fill="#000000" height="800px" width="800px" version="1.1" id="Capa_1" xmlns="http://www.w3.org/2000/svg" xmlns:xlink="http://www.w3.org/1999/xlink" 
	 viewBox="0 0 492.8 492.8" xml:space="preserve">
<g>
	<g>
		<path d="M278.4,378.156c12.7,4.1,34.3,6.9,61.5,7.6c18.8,0.4,37.6,0.9,56.5,1.3l28.3,0.6l7.1,0.1l3.6,0.1l4.9-0.2
			c6.5-0.5,12.9-2.1,18.9-4.8c12-5.3,21.9-15,27.6-26.9c2.8-6,4.7-12.2,5.4-19.6l0.2-3.5l0.1-4.4l0.1-7.1
			c0.2-18.9,0.2-37.8,0.2-56.6l-0.5-91l-0.4-45.5l-0.1-11.4l-0.1-5.7c0-1.9,0-3.6-0.2-6.5c-0.5-10.4-4.2-20.7-10.2-29.1
			c-6-8.5-14.4-15.1-24-19.1c-2.4-0.9-4.8-1.9-7.4-2.4c-1.3-0.3-2.4-0.6-3.9-0.9l-4.3-0.6c-1.7-0.2-2.2-0.2-3.3-0.2l-1.4-0.1h-2.2
			l-5.7,0.1l-45.5,0.6l-91,1.1c-54.4-2.9-109-4.6-163.9-5.6c-13.7-0.2-27.4-0.4-41.2-0.6l-20.6-0.2l-5.2-0.1h-1.3l-1.9,0.1l-3.8,0.2
			c-5,0.5-10.1,1.5-14.9,3.3c-19.4,6.7-34.4,24-38.6,44.2c-0.3,1.4-0.5,2.9-0.7,4.4c-0.2,1.4-0.4,3.2-0.4,3.8l-0.1,2.6v0.6v1.7v1.3
			v10.3v20.7c0.1,55.1,0.2,110.4,0.3,165.5v20.7v5.2c0.1,2.5,0.1,5.1,0.5,7.6c0.6,5.1,2,10.1,3.9,14.8c7.7,19.1,25,33.5,45.9,37
			l4.4,0.6c1.3,0.1,1.8,0.1,2.8,0.2l1.3,0.1l2.3,0.1H64h10.3l20.7,0.1c13.8,0.1,27.5,0.2,41.3,0.3c9.8,0.1,25.1-3.4,30-5.8
			c9.6-4.9-2.9-9-21.5-12.1c-15.4-2.6-31.5-4.8-48.3-6.7c-8.4-0.9-17-1.8-25.7-2.6c-2.2-0.2-4.4-0.4-6.6-0.6l-3.3-0.3h-0.1h-0.1
			c0.8,0,0.2,0,0.4,0h-0.2l-0.4-0.1l-0.8-0.1l-1.6-0.2c-1.3-0.1-1.8-0.4-2.6-0.6c-0.7-0.2-1.5-0.4-2.3-0.7c-1.7-0.5-3.2-1.3-4.8-2.1
			c-6.1-3.3-11-8.6-13.8-14.7c-1.4-3.1-2.2-6.3-2.5-9.6c-0.2-1.7-0.1-3.2-0.1-5.1l0.3-7c0.8-18.6,1.3-37.5,1.6-56.5
			c0.8-45.6,1.5-91.3,2.3-136.9l0.3-17.1l0.1-4.3v-1.1v-0.3l0.1-2.1c0.1-0.7,0.1-1.5,0.2-2c0.1-0.3,0.2-0.5,0.2-0.8
			c0-0.4,0.3-1.3,0.5-2.1c1.9-6.4,6.7-12,12.7-14.7c3-1.4,6.2-2.1,9.5-2.2c0.5,0,0.7-0.1,1.4,0h2.1l4.3,0.1l8.6,0.1l34.3,0.4
			c91.4,1.1,183,1.3,274.9-0.3l34.1,0.6l16.1,0.3l2.1,0.1c0.7,0,1.6,0.1,1.6,0.2c0.5,0.2,0.6,0.1,1.5,0.4c1.5,0.4,2.9,0.9,4.2,1.6
			c4.4,2,7.9,5.8,10,10c1.1,2.1,1.7,4.4,2,6.7c0.1,0.6,0.1,1.2,0.1,1.8c0,0.7,0.1,0.9,0.1,2.3l-0.1,6.8l-0.4,54
			c-0.2,36-0.3,72-0.2,108l0.3,54l0,0v0.7l-0.1,1.7c0,1.5-0.2,1.4-0.2,1.7c0,0.3,0,0.6-0.2,1.2c-0.2,0.5-0.2,1.1-0.4,1.7
			c-0.6,2.2-1.8,4.3-3.1,6.2c-2.8,3.8-6.8,6.7-11.3,7.9c-1.1,0.4-2.3,0.5-3.5,0.7c-0.6,0-1.2,0.1-1.8,0.1l-3.2,0.1l-13.5,0.2
			l-26.9,0.5c-17.9,0.4-35.9,0.9-53.8,1.3c-18.7,0.5-35.9,1.8-48.8,3.9c9.4-8.7,18-18.2,25-29.2c2.8-4.5,2.6-10.8-4.1-16.9
			c-6.1-5.6-13-7.3-17.4-4.3c-8,5.5-16.1,11-22.7,17.9c-10.6,11.1-20.1,23.4-30,35.2l-1.8,0.8h-0.1c-3.9,1.7-5.7,6.3-3.9,10.2l4,9.1
			c11.7,26.5,35.6,41.5,53.2,62.5c0.8,1,4.6-0.1,6.8-1.4c4.3-2.6,6.1-6.6,6.7-10.5c1.8-12.8-1.7-22.7-7.6-30.3
			C290.9,394.256,284.8,386.056,278.4,378.156z"/>
	</g>
</g>
</svg>