<?xml version="1.0" encoding="UTF-8"?>
<svg id="a" data-name="Слой 1" xmlns="http://www.w3.org/2000/svg" viewBox="0 0 257 257.29">
    <rect y=".29" width="257" height="257" fill="#ddd"/>
    <g>
        <path d="m245.02,126.15c-43.04,35.44-82.35,75.41-117.06,119.04-3.84-77.51-7.59-156.1,8.98-231.91C106.44,61.34,60.37,97.06,15.25,131.77" fill="#ccc"/>
        <path d="m239.72,120.84c-16.84,13.87-33.11,28.43-48.76,43.63s-30.46,30.83-44.72,47.14c-8.08,9.24-15.94,18.67-23.58,28.27l12.8,5.3c-1.25-25.31-2.49-50.62-3.02-75.95s-.37-50.27,1.2-75.36c.88-14.1,2.2-28.17,4.08-42.16l-.27,1.99c1.74-12.9,3.96-25.72,6.73-38.44.8-3.68-.8-7.35-4.34-8.85s-7.34-.11-9.37,3.07c-2.97,4.67-6.09,9.25-9.35,13.72-.75,1.03-1.51,2.05-2.27,3.07-.42.57-.85,1.13-1.28,1.69-.17.22-.34.45-.52.67-.88,1.15,1.12-1.44,0,0-1.69,2.18-3.42,4.33-5.18,6.45-6.99,8.47-14.43,16.55-22.19,24.31-15.64,15.64-32.54,29.97-49.82,43.76-4.86,3.88-9.76,7.72-14.67,11.54-1.24.96-2.48,1.93-3.72,2.89-.56.44-1.13.87-1.69,1.31,1.98-1.54-.41.32-.85.66-2.48,1.91-4.97,3.83-7.45,5.74-1.62,1.25-2.88,2.43-3.45,4.48-.49,1.8-.27,4.19.76,5.78s2.57,3.01,4.48,3.45,4.22.44,5.78-.76c18.18-13.98,36.36-27.97,53.76-42.91,16.91-14.52,33.11-29.97,47.5-47.02,8.36-9.9,16.16-20.31,23.11-31.25-4.57-1.93-9.14-3.85-13.71-5.78-6.57,30.15-10.07,60.94-11.58,91.74-1.48,30.28-1.07,60.62.03,90.91.62,17.09,1.46,34.17,2.31,51.25.15,3.03,1.76,5.65,4.61,6.85,2.51,1.06,6.35.77,8.19-1.55,13.59-17.07,27.87-33.58,42.81-49.48,14.84-15.79,30.31-30.97,46.38-45.5,9.1-8.23,18.4-16.25,27.87-24.05,1.4-1.15,2.2-3.57,2.2-5.3,0-1.84-.82-4.04-2.2-5.3s-3.31-2.29-5.3-2.2-3.69.87-5.3,2.2h0Z" fill="#5ebc77"/>
    </g>
</svg>
